<svg width="20" height="22" viewBox="0 0 20 22" fill="none" xmlns="http://www.w3.org/2000/svg">
<path d="M9.9642 21.8903C10.6248 21.8912 11.2692 21.6862 11.8079 21.3038C12.3466 20.9215 12.7528 20.3808 12.97 19.757H6.95835C7.17559 20.3808 7.58179 20.9215 8.12049 21.3038C8.65918 21.6862 9.30362 21.8912 9.9642 21.8903ZM17.4308 13.9821V9.09041C17.4308 5.65896 15.1002 2.76831 11.9429 1.89899C11.6303 1.11179 10.8666 0.557129 9.9642 0.557129C9.0618 0.557129 8.29808 1.11179 7.98554 1.89899C4.82823 2.76938 2.49758 5.65896 2.49758 9.09041V13.9821L0.67679 15.8029C0.577545 15.9018 0.498839 16.0193 0.445202 16.1487C0.391564 16.2782 0.364056 16.4169 0.364259 16.557V17.6237C0.364259 17.9066 0.476639 18.1779 0.676676 18.3779C0.876714 18.578 1.14802 18.6903 1.43092 18.6903H18.4975C18.7804 18.6903 19.0517 18.578 19.2517 18.3779C19.4518 18.1779 19.5641 17.9066 19.5641 17.6237V16.557C19.5643 16.4169 19.5368 16.2782 19.4832 16.1487C19.4296 16.0193 19.3509 15.9018 19.2516 15.8029L17.4308 13.9821Z" fill="#0D0D0D" fill-opacity="0.75"/>
</svg>
