<svg width="33" height="30" viewBox="0 0 33 30" fill="none" xmlns="http://www.w3.org/2000/svg">
<path d="M24.8933 27.6C24.8933 24.7723 21.0728 22.48 16.36 22.48C11.6472 22.48 7.82667 24.7723 7.82667 27.6M31.72 22.4806C31.72 20.3811 29.6138 18.5767 26.6 17.7867M1 22.4806C1 20.3811 3.10619 18.5767 6.12 17.7867M26.6 10.9363C27.6475 9.99878 28.3067 8.63637 28.3067 7.12C28.3067 4.2923 26.0144 2 23.1867 2C21.8753 2 20.6792 2.49298 19.7733 3.30371M6.12 10.9363C5.07253 9.99878 4.41333 8.63637 4.41333 7.12C4.41333 4.2923 6.70563 2 9.53333 2C10.8447 2 12.0408 2.49298 12.9467 3.30371M16.36 17.36C13.5323 17.36 11.24 15.0677 11.24 12.24C11.24 9.4123 13.5323 7.12 16.36 7.12C19.1877 7.12 21.48 9.4123 21.48 12.24C21.48 15.0677 19.1877 17.36 16.36 17.36Z" stroke="white" stroke-width="2" stroke-linecap="round" stroke-linejoin="round"/>
</svg>
