<svg width="31" height="31" viewBox="0 0 31 31" fill="none" xmlns="http://www.w3.org/2000/svg">
<g clip-path="url(#clip0_2_402)">
<path d="M21.9213 4.01241L27.0419 4.01241C27.3814 4.01241 27.7071 4.14729 27.9471 4.38737C28.1872 4.62744 28.3221 4.95306 28.3221 5.29258V25.7753C28.3221 26.1148 28.1872 26.4404 27.9471 26.6805C27.7071 26.9205 27.3814 27.0554 27.0419 27.0554H3.99892C3.6594 27.0554 3.33378 26.9205 3.0937 26.6805C2.85362 26.4404 2.71875 26.1148 2.71875 25.7753L2.71875 5.29258C2.71875 4.95306 2.85362 4.62744 3.0937 4.38737C3.33378 4.14729 3.6594 4.01241 3.99892 4.01241H9.11959V1.45208H11.6799V4.01241H19.3609V1.45208H21.9213V4.01241ZM5.27908 11.6934L5.27908 24.4951H25.7618V11.6934H5.27908ZM7.83942 16.8141H14.2403V21.9348H7.83942V16.8141Z" fill="white"/>
</g>
<defs>
<clipPath id="clip0_2_402">
<rect width="30.724" height="30.724" fill="white" transform="translate(0.158203 0.171875)"/>
</clipPath>
</defs>
</svg>
