<svg width="23" height="21" viewBox="0 0 23 21" fill="none" xmlns="http://www.w3.org/2000/svg">
<path d="M21.6273 16.3737C22.2458 15.2467 22.5762 13.9844 22.5891 12.699C22.602 11.4135 22.297 10.1448 21.7013 9.00574C21.1055 7.86663 20.2374 6.89243 19.1742 6.1698C18.1111 5.44717 16.8858 4.99852 15.6074 4.86374C15.2016 3.88631 14.6012 3.00167 13.8426 2.26368C13.0841 1.52568 12.1833 0.949772 11.1951 0.571C10.2069 0.192228 9.15194 0.0185186 8.09446 0.0604449C7.03698 0.102371 5.9991 0.359057 5.04398 0.814876C4.08887 1.2707 3.2365 1.91611 2.53877 2.71184C1.84104 3.50758 1.31254 4.43697 0.985433 5.44346C0.658331 6.44995 0.539471 7.51248 0.63609 8.56637C0.732708 9.62026 1.04278 10.6435 1.54744 11.5737L0.907444 13.8237C0.849756 14.0289 0.847759 14.2457 0.901659 14.4519C0.95556 14.6581 1.06341 14.8463 1.21413 14.997C1.36484 15.1477 1.55297 15.2556 1.75919 15.3095C1.9654 15.3634 2.18225 15.3614 2.38743 15.3037L4.63742 14.6637C5.54272 15.1632 6.53904 15.4761 7.5674 15.5837C7.98398 16.6001 8.61055 17.5171 9.4061 18.2746C10.2016 19.0321 11.1482 19.613 12.1838 19.9793C13.2195 20.3456 14.3208 20.489 15.4157 20.4001C16.5106 20.3113 17.5743 19.9921 18.5373 19.4636L20.7873 20.1036C20.9928 20.1648 21.2111 20.1693 21.4189 20.1167C21.6268 20.064 21.8166 19.9562 21.9682 19.8045C22.1198 19.6529 22.2277 19.4631 22.2803 19.2553C22.333 19.0474 22.3285 18.8292 22.2673 18.6237L21.6273 16.3737ZM4.71742 13.4137C4.65939 13.4131 4.60175 13.4233 4.54742 13.4437L2.05744 14.1537L2.76743 11.6637C2.79239 11.5857 2.79996 11.5032 2.78959 11.422C2.77922 11.3408 2.75118 11.2629 2.70743 11.1937C1.88914 9.81273 1.60302 8.18057 1.9028 6.60361C2.20258 5.02664 3.06763 3.61332 4.33557 2.62893C5.60351 1.64455 7.18715 1.15681 8.7892 1.25725C10.3913 1.3577 11.9016 2.03944 13.0366 3.17449C14.1717 4.30954 14.8534 5.81986 14.9539 7.42191C15.0543 9.02397 14.5666 10.6076 13.5822 11.8756C12.5978 13.1435 11.1845 14.0085 9.60751 14.3083C8.03055 14.6081 6.39839 14.322 5.01742 13.5037C4.92826 13.4452 4.82403 13.414 4.71742 13.4137ZM20.4073 16.4637L21.1173 18.9536L18.6273 18.2437C18.5494 18.2187 18.4669 18.2111 18.3857 18.2215C18.3045 18.2319 18.2265 18.2599 18.1573 18.3037C17.3792 18.7638 16.5149 19.0595 15.6179 19.1724C14.7209 19.2853 13.8103 19.2129 12.9424 18.9599C12.0745 18.7068 11.2677 18.2784 10.572 17.7011C9.87621 17.1238 9.30628 16.41 8.89739 15.6037C10.8721 15.4719 12.7232 14.5953 14.0764 13.1511C15.4297 11.7069 16.1841 9.80284 16.1873 7.82372C16.1851 7.25519 16.1214 6.68857 15.9973 6.13373C17.0412 6.3298 18.0225 6.77454 18.858 7.43029C19.6936 8.08604 20.3588 8.93348 20.7974 9.90085C21.2359 10.8682 21.4349 11.927 21.3774 12.9876C21.32 14.0482 21.0078 15.0793 20.4673 15.9937C20.4236 16.0629 20.3955 16.1408 20.3852 16.222C20.3748 16.3032 20.3824 16.3857 20.4073 16.4637Z" fill="#0D0D0D" fill-opacity="0.75"/>
</svg>
